<?xml version="1.0" encoding="utf-8"?>
<!DOCTYPE svg PUBLIC "-//W3C//DTD SVG 1.1//EN" "http://www.w3.org/Graphics/SVG/1.1/DTD/svg11.dtd">
<svg version="1.1" id="Layer_1" xmlns="http://www.w3.org/2000/svg" xmlns:xlink="http://www.w3.org/1999/xlink" x="0px" y="0px"
	 width="960px" height="238.253px" viewBox="0 0 960 238.253" enable-background="new 0 0 960 238.253" xml:space="preserve">
<g>
	<g>
		<path d="M66.425,75.619c-6.026,0-9.489,3.321-10.845,9.048c-4.067-6.634-12.502-9.95-19.882-9.95C13.856,74.716,0,95.07,0,116.932
			c0,21.56,10.695,41.61,33.439,41.61c9.94,0,17.321-3.613,21.84-10.25h0.301v5.126c0,11.006-7.833,17.185-18.375,17.185
			c-12.501,0-20.183-6.782-27.113-6.782c-4.218,0-8.736,5.429-8.736,9.5c0,11.911,25.303,16.281,34.191,16.281
			c24.701,0,41.722-13.118,41.722-39.199V87.686C77.269,80.444,72.752,75.619,66.425,75.619z M38.562,138.644
			c-11.299,0-16.87-10.556-16.87-22.167c0-10.097,5.571-21.859,16.87-21.859c11.897,0,17.018,12.06,17.018,22.62
			C55.58,127.792,50.158,138.644,38.562,138.644z M94.14,40.643c-6.325,0-10.843,4.826-10.843,12.061v92.874
			c0,7.236,4.52,12.062,10.843,12.062c6.327,0,10.847-4.825,10.847-12.062V52.704C104.987,45.468,100.468,40.643,94.14,40.643z
			 M146.708,74.716c-22.894,0-38.858,20.05-38.858,42.064c0,22.615,15.513,41.761,38.858,41.761
			c23.348,0,38.862-19.146,38.862-41.761C185.567,94.767,169.604,74.716,146.708,74.716z M146.708,138.644
			c-11.747,0-17.172-11.46-17.172-21.863c0-10.4,5.275-22.161,17.172-22.161c11.901,0,17.172,11.761,17.172,22.161
			C163.879,127.184,158.458,138.644,146.708,138.644z M231.061,74.716c-7.53,0-14.911,2.562-20.635,7.541V52.704
			c0-7.235-4.521-12.058-10.846-12.058s-10.844,4.827-10.844,12.058v92.874c0,7.238,4.518,12.062,10.844,12.062
			c6.025,0,9.489-3.313,10.846-9.043c4.065,6.633,12.501,9.952,19.882,9.952c21.84,0,35.696-20.358,35.696-40.859
			C266.004,96.579,254.405,74.716,231.061,74.716z M227.445,138.644c-11.9,0-17.02-12.064-17.02-22.614
			c0-10.557,5.42-21.411,17.02-21.411c11.296,0,16.871,11.91,16.871,22.161C244.316,126.883,238.742,138.644,227.445,138.644z
			 M307.879,74.716c-22.895,0-38.859,20.05-38.859,42.064c0,22.615,15.514,41.761,38.859,41.761
			c23.345,0,38.859-19.146,38.859-41.761C346.738,94.767,330.774,74.716,307.879,74.716z M307.879,138.644
			c-11.751,0-17.172-11.46-17.172-21.863c0-10.4,5.272-22.161,17.172-22.161c11.898,0,17.173,11.761,17.173,22.161
			C325.053,127.184,319.628,138.644,307.879,138.644z M363.91,135.022c-6.471,0-11.744,5.282-11.744,11.764
			c0,6.484,5.273,11.758,11.744,11.758c6.481,0,11.751-5.273,11.751-11.758C375.661,140.304,370.392,135.022,363.91,135.022z
			 M437.115,134.122c-2.562,0-10.695,4.522-16.113,4.522c-11.752,0-18.23-11.156-18.23-21.863c0-11.154,5.878-22.161,18.23-22.161
			c6.928,0,11.746,4.223,17.168,4.223c5.121,0,8.285-5.88,8.285-10.403c0-10.556-17.924-13.724-26.51-13.724
			c-22.894,0-38.86,20.052-38.86,42.066c0,22.619,15.514,41.761,38.86,41.761c7.835,0,26.51-3.766,26.51-14.925
			C446.455,138.492,442.24,134.122,437.115,134.122z M483.662,74.716c-22.893,0-38.865,20.05-38.865,42.064
			c0,22.615,15.52,41.761,38.865,41.761c23.351,0,38.86-19.146,38.86-41.761C522.522,94.767,506.553,74.716,483.662,74.716z
			 M483.662,138.644c-11.748,0-17.174-11.46-17.174-21.863c0-10.4,5.277-22.161,17.174-22.161c11.897,0,17.171,11.761,17.171,22.161
			C500.831,127.184,495.409,138.644,483.662,138.644z M611.995,74.716c-7.384,0-16.868,4.071-22.894,11.007
			c-5.723-7.237-13.405-11.007-22.442-11.007c-7.979,0-14.911,3.316-20.185,9.047c-0.756-5.125-4.363-8.145-9.938-8.145
			c-6.331,0-10.85,4.826-10.85,12.063v57.896c0,7.236,4.519,12.062,10.85,12.062c6.32,0,10.843-4.825,10.843-12.062v-37.841
			c0-8.747,3.91-14.927,12.8-14.927c7.834,0,12.654,6.181,12.654,14.927v37.841c0,7.236,4.517,12.062,10.843,12.062
			s10.843-4.825,10.843-12.062v-37.841c0-8.747,4.824-14.927,12.807-14.927c7.835,0,12.651,6.181,12.651,14.927v37.841
			c0,7.236,4.52,12.062,10.845,12.062c6.324,0,10.843-4.825,10.843-12.062v-41.611C641.667,84.97,629.617,74.716,611.995,74.716z"/>
	</g>
</g>
</svg>
